<svg xmlns="http://www.w3.org/2000/svg" viewBox="0 0 67.11 67.11">
	<defs>
		<style>
      .cls-1{fill:#deaf9a;stroke:#f9f5f2;stroke-miterlimit:10}
		</style>
	</defs>
	<g id="Layer_2" data-name="Layer 2">
		<g id="Layer_1-2" data-name="Layer 1">
			<path d="M33.56.5a33.06 33.06 0 1033.05 33.06A33.09 33.09 0 0033.56.5zm0 58.4A25.34 25.34 0 1158.9 33.56 25.37 25.37 0 0133.56 58.9z" class="cls-1"/>
			<path d="M47.71 23.65a3.86 3.86 0 00-5.45-.21l-13 12.06L25 31.23a3.86 3.86 0 00-5.46 5.46l6.88 6.88.1.09.14.13.16.13.18.08.18.11.15.09.2.1.15.07.22.08.15.05.24.06h1.73l.22-.05h.14l.2-.07.15-.07.18-.09.09-.08.17-.1.15-.1.16-.12.14-.12.1-.08L47.5 29.1a3.86 3.86 0 00.21-5.45z" class="cls-1"/>
		</g>
	</g>
</svg>