<svg version="1.1" id="Layer_1"
	xmlns="http://www.w3.org/2000/svg" x="0" y="0" viewBox="0 0 1000 1000" xml:space="preserve">
	<style>
    .st0{fill:#F9F5F2}.st1{fill:#F9F5F2}
	</style>
	<path class="st0" d="M497.47 650.58c-52.74 0-103.19-14.1-142.59-40.91-64.34-43.81-86.14-109.74-91.29-128.9-53.15-197.76 197.44-354.18 245.77-374.74 13.56-5.77 48.89-20.79 74.88-3.2 10.03 6.78 17.27 17.17 21.51 30.87 9.06 29.25 21.88 57.17 40.31 87.88 3.85 6.41 8.06 13.13 12.52 19.97 2.58 3.96 5.18 7.93 7.79 11.9 44.05 67.19 89.61 136.67 74.39 224.17-3.72 21.41-11.28 42.29-22.46 62.06-27.94 49.4-83.42 86.94-152.2 102.98-22.83 5.32-45.94 7.92-68.63 7.92zm57.56-529.51c-13.13 0-28.13 6.38-35.01 9.31-23.62 10.05-94.29 52.72-152.13 114.79-49.61 53.24-103.52 136.14-78.64 228.71 3.24 12.05 22.34 74.17 80.59 113.83 50.3 34.25 121.42 45.12 190.23 29.07 61.57-14.36 110.81-47.23 135.11-90.18 9.68-17.11 16.21-35.12 19.41-53.53 13.42-77.16-29.21-142.17-70.43-205.04-2.62-3.99-5.23-7.98-7.83-11.96-4.63-7.11-9.02-14.1-13.04-20.8-19.57-32.58-33.2-62.35-42.91-93.69-2.42-7.78-6.12-13.41-11.02-16.73-4.04-2.74-9.04-3.78-14.33-3.78z"/>
	<path class="st1" d="M479.63 321.57c15.52 12.27 35.85 12.33 51.06-.6 5.04-4.29 4.41-12.91 0-17.32-4.99-4.99-12.26-4.3-17.32 0-4.17 3.55-12 4.11-16.43.6-5.18-4.1-12.26-5.06-17.32 0-4.24 4.26-5.2 13.19.01 17.32zM447.63 284.78c15.76 0 15.78-33.78 0-33.78-15.75 0-15.78 33.78 0 33.78zM559.46 284.78c15.76 0 15.78-33.78 0-33.78-15.76 0-15.79 33.78 0 33.78z"/>
	<g>
		<path class="st0" d="M537.95 393.9c-5.67.91-11.17 2.51-16.44 4.66-5.55-16.95-17.6-31.37-33.76-39.92-27.33-14.45-60.87-7.18-84.41 11.32-43.64 34.29-35.63 94.95-12.03 139.47 2.88 5.43 5.99 10.61 9.26 15.48 9.67 14.38 31.63-1.09 21.99-15.43a147.26 147.26 0 01-6.48-10.57c-17.39-31.1-28.83-76.21-1.33-103.47 30.09-29.82 82.49-18.8 83.41 25.48.21 10.06 13.41 15.45 21.08 9.67 42.28-31.9 89.46 19.35 74.03 62.02-9.88 27.31-40.74 46.12-66.22 56.43-14.11 5.71-28.71 11.45-43.6 15.9 0-.01 0-.02-.01-.04-.7.21-1.39.44-2.09.65-5.19 1.62-10.23 3.44-15.05 5.45-8.85 3.69-9.49 12.77-5.62 19.11 3.18 5.21 9.4 8.57 16.65 5.55 3-1.25 6.18-2.45 9.49-3.57 19.66-5.4 38.96-12.99 56.9-20.98 29.47-13.11 61.82-36.09 73.95-67.31 19.63-50.48-21.05-119.35-79.72-109.9z"/>
	</g>
	<g>
		<path class="st1" d="M337.56 717.35c0-4.67 3.79-8.46 8.46-8.46h38.9c23.79 0 46.53 11.06 46.53 41.74 0 6.9-1.99 12.41-4.54 16.6-3.52 5.78-3.1 13.23 1.72 17.97 5.33 5.24 10.33 13.63 10.33 26.57 0 25.67-21.28 43.19-48.83 43.19h-44.12c-4.67 0-8.46-3.79-8.46-8.46V717.35zm46.53 51.21c13.98 0 21.91-5.22 21.91-17.94 0-12.73-9.6-17.95-21.91-17.95h-13.03c-4.67 0-8.46 3.79-8.46 8.46v18.96c0 4.67 3.79 8.46 8.46 8.46h13.03zm28.93 37.7c-1.36-8.01-8.31-13.91-16.44-13.91h-25.51c-4.67 0-8.46 3.79-8.46 8.46v21.88c0 4.67 3.79 8.46 8.46 8.46h18.24c15.48.01 26.74-7.1 23.71-24.89z"/>
	</g>
	<g>
		<path class="st1" d="M569.27 883.35c2.33-3.86 7.22-5.14 11.24-3.09 2.02 1.03 4.31 1.82 6.57 1.82 8.55 0 12.1-2.51 16.9-14.61l2.64-6.82c.84-2.17.75-4.59-.25-6.7l-40.87-85.81c-2.68-5.62 1.42-12.1 7.64-12.1h8.93c3.3 0 6.3 1.92 7.69 4.92l22.47 48.73c3.17 6.88 13.08 6.45 15.65-.68l17.07-47.38a8.46 8.46 0 017.96-5.6h8.51c5.98 0 10.07 6.03 7.87 11.58l-43.4 109.44c-8.55 21.7-22.53 28.38-37.14 28.38-7.78 0-14.62-2.8-19.39-5.5-4.13-2.34-5.48-7.65-3.03-11.71l2.94-4.87z"/>
	</g>
	<g>
		<path class="st1" d="M455.76 717.35c0-4.67 3.79-8.46 8.46-8.46h38.9c23.79 0 46.53 11.06 46.53 41.74 0 6.9-1.99 12.41-4.54 16.6-3.52 5.78-3.1 13.23 1.72 17.97 5.33 5.24 10.33 13.63 10.33 26.57 0 25.67-21.28 43.19-48.83 43.19h-44.12c-4.67 0-8.46-3.79-8.46-8.46V717.35zm46.53 51.21c13.98 0 21.91-5.22 21.91-17.94 0-12.73-9.6-17.95-21.91-17.95h-13.03c-4.67 0-8.46 3.79-8.46 8.46v18.96c0 4.67 3.79 8.46 8.46 8.46h13.03zm28.93 37.7c-1.36-8.01-8.31-13.91-16.44-13.91h-25.51c-4.67 0-8.46 3.79-8.46 8.46v21.88c0 4.67 3.79 8.46 8.46 8.46h18.24c15.48.01 26.74-7.1 23.71-24.89z"/>
	</g>
</svg>