<?xml version="1.0" encoding="utf-8"?>
<!-- Generator: Adobe Illustrator 25.4.1, SVG Export Plug-In . SVG Version: 6.00 Build 0)  -->
<svg version="1.1" id="Layer_2" xmlns="http://www.w3.org/2000/svg" xmlns:xlink="http://www.w3.org/1999/xlink" x="0px" y="0px"
	 viewBox="0 0 300 284" style="enable-background:new 0 0 300 284;" xml:space="preserve">
<style type="text/css">
	.st0{fill:#FFFFFF;}
</style>
<path class="st0" d="M116.2,51.52c-25.09,4.73-42.73,22.91-52.9,54.54c-5.1,15.64-7.64,31.09-7.64,46.36c0,1.83,0.08,3.37,0.27,4.64
	c0.18,1.28,0.45,4.09,0.82,8.45h59.45v118.9H0.03V174.78c0-53.8,10.72-95.25,32.18-124.35C53.66,21.34,81.65,4.61,116.2,0.25V51.52z
	 M300,51.52c-20,3.27-35.18,14.55-45.54,33.81c-10.36,19.28-15.54,41.45-15.54,66.54c0,2.18,0.08,4.36,0.27,6.54
	c0.18,2.18,0.63,4.55,1.36,7.09H300v118.9H183.29V174.78c0-43.26,9.08-81.89,27.27-115.9C228.73,24.89,258.55,5.35,300,0.25V51.52z"
	/>
</svg>
